<svg width="128" height="128" viewBox="0 0 128 128" fill="none" xmlns="http://www.w3.org/2000/svg">
    <circle cx="64" cy="64" r="60" fill="#2563eb"/>
    <path d="M98 40c-5.333-2.667-10.667-4-16-4-10.667 0-21.333 2.667-32 8l-8 8c-5.333-2.667-10.667-4-16-4-10.667 0-21.333 2.667-32 8l-8 8c-5.333-2.667-10.667-4-16-4-10.667 0-21.333 2.667-32 8l-8 8c-5.333-2.667-10.667-4-16-4-10.667 0-21.333 2.667-32 8l-8 8c-5.333-2.667-10.667-4-16-4-10.667 0-21.333 2.667-32 8l-8 8c-5.333-2.667-10.667-4-16-4" fill="white" stroke="white" stroke-width="2" stroke-linecap="round" stroke-linejoin="round"/>
    <circle cx="52" cy="52" r="4" fill="white"/>
    <circle cx="76" cy="52" r="4" fill="white"/>
</svg>